<svg width="49" height="48" viewBox="0 0 49 48" fill="none" xmlns="http://www.w3.org/2000/svg">
<path d="M0.833252 10C0.833252 4.75329 5.08655 0.5 10.3333 0.5H38.3333C43.58 0.5 47.8333 4.75329 47.8333 10V38C47.8333 43.2467 43.58 47.5 38.3333 47.5H10.3333C5.08655 47.5 0.833252 43.2467 0.833252 38V10Z" fill="white"/>
<path d="M0.833252 10C0.833252 4.75329 5.08655 0.5 10.3333 0.5H38.3333C43.58 0.5 47.8333 4.75329 47.8333 10V38C47.8333 43.2467 43.58 47.5 38.3333 47.5H10.3333C5.08655 47.5 0.833252 43.2467 0.833252 38V10Z" stroke="#E9EAEB"/>
<path d="M23.3333 15H20.1333C18.4531 15 17.613 15 16.9713 15.327C16.4068 15.6146 15.9479 16.0735 15.6602 16.638C15.3333 17.2798 15.3333 18.1198 15.3333 19.8V28.2C15.3333 29.8802 15.3333 30.7202 15.6602 31.362C15.9479 31.9265 16.4068 32.3854 16.9713 32.673C17.613 33 18.4531 33 20.1333 33H28.5333C30.2134 33 31.0535 33 31.6952 32.673C32.2597 32.3854 32.7187 31.9265 33.0063 31.362C33.3333 30.7202 33.3333 29.8802 33.3333 28.2V25M24.3333 20H28.3333V24M27.8333 15.5V14M31.7726 16.5607L32.8333 15.5M32.8435 20.5H34.3435M15.3333 25.3471C15.9852 25.4478 16.6531 25.5 17.3333 25.5C21.7196 25.5 25.5986 23.3276 27.9529 20" stroke="#414651" stroke-width="2" stroke-linecap="round" stroke-linejoin="round"/>
</svg>
