<svg width="48" height="48" viewBox="0 0 48 48" fill="none" xmlns="http://www.w3.org/2000/svg">
<path d="M0.5 10C0.5 4.75329 4.75329 0.5 10 0.5H38C43.2467 0.5 47.5 4.75329 47.5 10V38C47.5 43.2467 43.2467 47.5 38 47.5H10C4.75329 47.5 0.5 43.2467 0.5 38V10Z" fill="white"/>
<path d="M0.5 10C0.5 4.75329 4.75329 0.5 10 0.5H38C43.2467 0.5 47.5 4.75329 47.5 10V38C47.5 43.2467 43.2467 47.5 38 47.5H10C4.75329 47.5 0.5 43.2467 0.5 38V10Z" stroke="#E9EAEB"/>
<path d="M25 14L16.0935 24.6879C15.7447 25.1064 15.5703 25.3157 15.5676 25.4925C15.5653 25.6461 15.6337 25.7923 15.7533 25.8889C15.8908 26 16.1632 26 16.708 26H24L23 34L31.9066 23.3121C32.2554 22.8936 32.4298 22.6843 32.4324 22.5075C32.4348 22.3539 32.3663 22.2077 32.2468 22.1111C32.1093 22 31.8368 22 31.292 22H24L25 14Z" stroke="#414651" stroke-width="2" stroke-linecap="round" stroke-linejoin="round"/>
</svg>
